<svg width="36px" height="36px" viewBox="0 0 24 24" version="1.1" xmlns="http://www.w3.org/2000/svg" xmlns:xlink="http://www.w3.org/1999/xlink" opacity="1">
    <title>tree_main_line</title>
    <g id="页面-1" stroke="none" stroke-width="1" fill="none" fill-rule="evenodd">
        <g id="线路" fill="#6F7E91" fill-rule="nonzero">
            <path d="M18,5 C19.1045695,5 20,5.8954305 20,7 C20,7.7398375 19.5982846,8.38584934 19.0010775,8.73181186 L19,15 C19,17.209139 17.209139,19 15,19 C12.8578046,19 11.1089211,17.3160315 11.0048953,15.1996403 L11,15 L11,9 L10.9945143,8.85073766 C10.9181651,7.81587779 10.0543618,7 9,7 C7.8954305,7 7,7.8954305 7,9 L7,9 L7.0010775,15.2681881 C7.59828461,15.6141507 8,16.2601625 8,17 C8,18.1045695 7.1045695,19 6,19 C4.8954305,19 4,18.1045695 4,17 C4,16.2597476 4.40216612,15.6134261 4.99992752,15.2676063 L5,9 L5.00489531,8.80035966 C5.10892112,6.68396847 6.85780461,5 9,5 C11.209139,5 13,6.790861 13,9 L13,9 L13,15 C13,16.1045695 13.8954305,17 15,17 C16.0543618,17 16.9181651,16.1841222 16.9945143,15.1492623 L17,15 L16.9999275,8.73239368 C16.4021661,8.38657394 16,7.74025244 16,7 C16,5.8954305 16.8954305,5 18,5 Z" id="形状结合"/>
        </g>
    </g>
</svg>